<?xml version="1.0" standalone="no"?><!DOCTYPE svg PUBLIC "-//W3C//DTD SVG 1.1//EN" "http://www.w3.org/Graphics/SVG/1.1/DTD/svg11.dtd"><svg t="1748222214456" class="icon" viewBox="0 0 1024 1024" version="1.1" xmlns="http://www.w3.org/2000/svg" p-id="2763" xmlns:xlink="http://www.w3.org/1999/xlink" width="200" height="200"><path d="M-34.133-30.788h1088.922v1088.922h-1088.922z" fill="#E50012" p-id="2764"></path><path d="M519.077 716.029c-152.747 0-288.991-97.108-339.067-241.648-1.495-4.16-2.361-8.96-2.361-13.962 0-5.002 0.865-9.802 2.452-14.258 49.962-144.243 186.226-241.349 338.975-241.349 152.731 0 288.973 97.108 339.069 241.646 1.495 4.165 2.361 8.973 2.361 13.981 0 5.008-0.865 9.815-2.452 14.278-50.003 144.204-186.268 241.312-338.976 241.312zM265.929 460.459c41.824 102.402 141.745 170.213 253.149 170.213 111.386 0 211.306-67.809 253.153-170.213-41.847-102.443-141.769-170.294-253.153-170.294-111.404 0.002-211.325 67.853-253.149 170.294z" fill="#FFFFFF" p-id="2765"></path><path d="M623.542 460.459c0 57.682-46.78 104.446-104.466 104.446-57.682 0-104.466-46.764-104.466-104.446 0-57.724 46.784-104.485 104.466-104.485 57.684 0.002 104.466 46.762 104.466 104.485z" fill="#FFFFFF" p-id="2766"></path><path d="M490.495 886.16c-1.757 22.782-19.971 39.956-40.684 38.357-20.714-1.597-36.080-21.359-34.323-44.14l13.17-170.828c1.757-22.782 19.972-39.956 40.684-38.357 20.714 1.597 36.078 21.359 34.323 44.14l-13.17 170.828zM537.551 136.464h70.78v92.558h-70.78z" fill="#FFFFFF" p-id="2767"></path></svg>